<?xml version="1.0" standalone="no"?>
<!DOCTYPE svg PUBLIC "-//W3C//DTD SVG 20010904//EN"
 "http://www.w3.org/TR/2001/REC-SVG-20010904/DTD/svg10.dtd">
<svg version="1.0" xmlns="http://www.w3.org/2000/svg"
 width="260.000000pt" height="260.000000pt" viewBox="0 0 260.000000 260.000000"
 preserveAspectRatio="xMidYMid meet">
<metadata>
Created by potrace 1.14, written by Peter Selinger 2001-2017
</metadata>
<g transform="translate(0.000000,260.000000) scale(0.100000,-0.100000)"
fill="#000000" stroke="none">
<path d="M564 2510 c-11 -4 -33 -22 -47 -40 l-27 -32 0 -1098 0 -1098 26 -31
c14 -17 42 -35 62 -41 25 -8 241 -10 677 -8 625 3 641 3 685 24 68 31 106 68
139 136 l31 61 0 1029 0 1028 -34 38 -34 37 -729 2 c-400 1 -737 -2 -749 -7z
m1454 -92 c9 -9 12 -248 12 -1013 l0 -1001 -22 -44 c-13 -24 -40 -58 -61 -74
l-39 -31 -661 -3 c-526 -2 -662 0 -669 10 -4 7 -8 492 -8 1079 0 815 3 1068
12 1077 17 17 1419 17 1436 0z"/>
<path d="M741 2266 c-8 -9 -10 -146 -9 -487 l3 -474 493 -3 c468 -2 494 -1
530 17 47 24 77 56 97 103 13 32 15 99 15 436 0 296 -3 401 -12 410 -19 19
-1101 17 -1117 -2z m1049 -428 c0 -396 -2 -406 -70 -440 -32 -16 -76 -18 -472
-18 l-438 0 0 405 0 405 490 0 490 0 0 -352z"/>
<path d="M946 1854 c-18 -18 -22 -95 -6 -125 6 -11 21 -19 35 -19 31 0 45 26
45 84 0 45 -18 76 -45 76 -7 0 -21 -7 -29 -16z"/>
<path d="M1151 1856 c-7 -9 -11 -40 -9 -78 3 -57 5 -63 26 -66 38 -6 52 15 52
77 0 31 -5 62 -12 69 -16 16 -43 15 -57 -2z"/>
<path d="M1352 1858 c-7 -7 -12 -38 -12 -69 0 -62 14 -83 52 -77 21 3 23 9 26
66 3 66 -7 92 -37 92 -9 0 -22 -5 -29 -12z"/>
<path d="M1556 1854 c-19 -19 -22 -114 -4 -132 18 -18 56 -14 68 7 27 51 4
141 -35 141 -7 0 -21 -7 -29 -16z"/>
<path d="M915 1195 c-21 -20 -25 -34 -25 -80 l0 -55 -55 0 c-46 0 -60 -4 -80
-25 -22 -21 -25 -33 -25 -100 0 -67 3 -79 25 -100 20 -21 34 -25 80 -25 l55 0
0 -55 c0 -46 4 -60 25 -80 21 -22 33 -25 100 -25 67 0 79 3 100 25 21 20 25
34 25 80 l0 55 55 0 c46 0 60 4 80 25 22 21 25 33 25 100 0 67 -3 79 -25 100
-20 21 -34 25 -80 25 l-55 0 0 55 c0 46 -4 60 -25 80 -21 22 -33 25 -100 25
-67 0 -79 -3 -100 -25z m135 -120 c0 -52 4 -69 20 -85 16 -16 33 -20 85 -20
l65 0 0 -35 0 -35 -63 0 c-89 0 -100 -11 -105 -99 l-4 -71 -34 0 -34 0 0 65
c0 89 -16 105 -105 105 l-65 0 0 35 0 35 65 0 c52 0 69 4 85 20 16 16 20 33
20 85 l0 65 35 0 35 0 0 -65z"/>
<path d="M1645 1203 c-48 -25 -73 -53 -91 -99 -60 -157 99 -305 252 -235 78
36 118 120 100 216 -8 43 -59 103 -103 121 -43 18 -121 17 -158 -3z m151 -94
c18 -14 32 -67 26 -96 -8 -40 -50 -73 -94 -73 -74 0 -121 78 -87 143 28 53
107 66 155 26z"/>
<path d="M1454 846 c-45 -20 -74 -62 -74 -108 0 -77 48 -128 121 -128 51 0 94
25 114 66 19 40 19 65 1 109 -25 60 -101 89 -162 61z m74 -88 c28 -28 1 -75
-38 -63 -14 4 -20 15 -20 35 0 37 33 53 58 28z"/>
<path d="M668 399 c-24 -14 -23 -56 1 -69 13 -6 173 -10 450 -10 423 0 431 0
452 21 18 18 19 23 6 42 -14 22 -15 22 -453 24 -286 2 -445 -1 -456 -8z"/>
<path d="M1683 398 c-22 -29 -23 -38 -3 -58 17 -17 33 -20 109 -20 68 0 93 4
105 16 22 21 20 51 -3 64 -29 15 -196 13 -208 -2z"/>
</g>
</svg>
